{
    "asset" : {
        "generator" : "Khronos glTF Blender I/O v1.3.48",
        "version" : "2.0"
    },
    "scene" : 0,
    "scenes" : [
        {
            "name" : "Scene",
            "nodes" : [
                0,
                1,
                2
            ]
        }
    ],
    "nodes" : [
        {
            "mesh" : 0,
            "name" : "Lebron_James.018",
            "scale" : [
                0.4590701162815094,
                0.4590701162815094,
                0.4590701162815094
            ],
            "translation" : [
                1.1456003189086914,
                7.471911907196045,
                -192.5462188720703
            ]
        },
        {
            "name" : "Light",
            "rotation" : [
                0.16907575726509094,
                0.7558803558349609,
                -0.27217137813568115,
                0.570947527885437
            ],
            "translation" : [
                4.076245307922363,
                5.903861999511719,
                -1.0054539442062378
            ]
        },
        {
            "name" : "Camera",
            "rotation" : [
                0.483536034822464,
                0.33687159419059753,
                -0.20870360732078552,
                0.7804827094078064
            ],
            "translation" : [
                7.358891487121582,
                4.958309173583984,
                6.925790786743164
            ]
        }
    ],
    "meshes" : [
        {
            "name" : "Lebron_James.6546",
            "primitives" : [
                {
                    "attributes" : {
                        "POSITION" : 0,
                        "NORMAL" : 1,
                        "TEXCOORD_0" : 2,
                        "TEXCOORD_1" : 3,
                        "COLOR_0" : 4
                    },
                    "indices" : 5
                }
            ]
        }
    ],
    "accessors" : [
        {
            "bufferView" : 0,
            "componentType" : 5126,
            "count" : 6012,
            "max" : [
                15.585222244262695,
                12.124536514282227,
                11.183404922485352
            ],
            "min" : [
                -15.648712158203125,
                -28.56000328063965,
                -18.321622848510742
            ],
            "type" : "VEC3"
        },
        {
            "bufferView" : 1,
            "componentType" : 5126,
            "count" : 6012,
            "type" : "VEC3"
        },
        {
            "bufferView" : 2,
            "componentType" : 5126,
            "count" : 6012,
            "type" : "VEC2"
        },
        {
            "bufferView" : 3,
            "componentType" : 5126,
            "count" : 6012,
            "type" : "VEC2"
        },
        {
            "bufferView" : 4,
            "componentType" : 5126,
            "count" : 6012,
            "type" : "VEC4"
        },
        {
            "bufferView" : 5,
            "componentType" : 5123,
            "count" : 35577,
            "type" : "SCALAR"
        }
    ],
    "bufferViews" : [
        {
            "buffer" : 0,
            "byteLength" : 72144,
            "byteOffset" : 0
        },
        {
            "buffer" : 0,
            "byteLength" : 72144,
            "byteOffset" : 72144
        },
        {
            "buffer" : 0,
            "byteLength" : 48096,
            "byteOffset" : 144288
        },
        {
            "buffer" : 0,
            "byteLength" : 48096,
            "byteOffset" : 192384
        },
        {
            "buffer" : 0,
            "byteLength" : 96192,
            "byteOffset" : 240480
        },
        {
            "buffer" : 0,
            "byteLength" : 71154,
            "byteOffset" : 336672
        }
    ],
    "buffers" : [
        {
            "byteLength" : 407828,
            "uri" : "data:application/octet-stream;base64,"
        }
    ]
}
